<mxfile host="app.diagrams.net" modified="2023-09-07T00:33:20.805Z" agent="Mozilla/5.0 (Windows NT 10.0; Win64; x64; rv:109.0) Gecko/20100101 Firefox/117.0" etag="eiutVflH7tYxgQJL9lEF" version="21.7.2" type="device">
  <diagram name="Página-1" id="UVwj9clic4Eh-iyagWIN">
    <mxGraphModel dx="989" dy="514" grid="1" gridSize="10" guides="1" tooltips="1" connect="1" arrows="1" fold="1" page="1" pageScale="1" pageWidth="827" pageHeight="1169" math="0" shadow="0">
      <root>
        <mxCell id="0" />
        <mxCell id="1" parent="0" />
        <mxCell id="LlE1iLzROr7FtnHzThpW-14" value="" style="rounded=1;whiteSpace=wrap;html=1;arcSize=4;fillColor=#f5f5f5;fontColor=#333333;strokeColor=#666666;" vertex="1" parent="1">
          <mxGeometry x="270" y="80" width="260" height="480" as="geometry" />
        </mxCell>
        <mxCell id="LlE1iLzROr7FtnHzThpW-19" style="rounded=0;orthogonalLoop=1;jettySize=auto;html=1;endArrow=none;endFill=0;" edge="1" parent="1" target="qX56F7LubsZiuuSgFNbx-8">
          <mxGeometry relative="1" as="geometry">
            <mxPoint x="240" y="250" as="sourcePoint" />
          </mxGeometry>
        </mxCell>
        <mxCell id="LlE1iLzROr7FtnHzThpW-20" style="rounded=0;orthogonalLoop=1;jettySize=auto;html=1;entryX=0.024;entryY=0.55;entryDx=0;entryDy=0;entryPerimeter=0;endArrow=none;endFill=0;" edge="1" parent="1" target="LlE1iLzROr7FtnHzThpW-4">
          <mxGeometry relative="1" as="geometry">
            <mxPoint x="240" y="250" as="sourcePoint" />
          </mxGeometry>
        </mxCell>
        <mxCell id="qX56F7LubsZiuuSgFNbx-1" value="Usuário" style="shape=umlActor;verticalLabelPosition=bottom;verticalAlign=top;html=1;outlineConnect=0;" parent="1" vertex="1">
          <mxGeometry x="200" y="215.41000000000003" width="30" height="60" as="geometry" />
        </mxCell>
        <mxCell id="qX56F7LubsZiuuSgFNbx-5" value="" style="endArrow=block;html=1;rounded=0;endFill=0;endSize=11;" parent="1" edge="1">
          <mxGeometry width="50" height="50" relative="1" as="geometry">
            <mxPoint x="214.91000000000003" y="396.24" as="sourcePoint" />
            <mxPoint x="214.80000000000004" y="296.24" as="targetPoint" />
          </mxGeometry>
        </mxCell>
        <mxCell id="qX56F7LubsZiuuSgFNbx-8" value="&lt;div&gt;Cadastrar histórico&lt;/div&gt;" style="ellipse;whiteSpace=wrap;html=1;" parent="1" vertex="1">
          <mxGeometry x="300" y="118.75" width="100" height="70.83" as="geometry" />
        </mxCell>
        <mxCell id="qX56F7LubsZiuuSgFNbx-20" value="&amp;lt;&amp;lt; include &amp;gt;&amp;gt;" style="text;html=1;strokeColor=none;fillColor=none;align=center;verticalAlign=middle;whiteSpace=wrap;rounded=0;" parent="1" vertex="1">
          <mxGeometry x="400" y="260.41" width="80" height="30" as="geometry" />
        </mxCell>
        <mxCell id="LlE1iLzROr7FtnHzThpW-16" style="rounded=0;orthogonalLoop=1;jettySize=auto;html=1;endArrow=open;endFill=0;startSize=6;endSize=10;" edge="1" parent="1" source="LlE1iLzROr7FtnHzThpW-2" target="LlE1iLzROr7FtnHzThpW-4">
          <mxGeometry relative="1" as="geometry" />
        </mxCell>
        <mxCell id="LlE1iLzROr7FtnHzThpW-2" value="&lt;div&gt;Cadastrar disciplinas&lt;/div&gt;" style="ellipse;whiteSpace=wrap;html=1;" vertex="1" parent="1">
          <mxGeometry x="400" y="189.58" width="100" height="70.83" as="geometry" />
        </mxCell>
        <mxCell id="LlE1iLzROr7FtnHzThpW-17" style="rounded=0;orthogonalLoop=1;jettySize=auto;html=1;endArrow=open;endFill=0;endSize=10;startSize=6;" edge="1" parent="1" source="LlE1iLzROr7FtnHzThpW-3" target="LlE1iLzROr7FtnHzThpW-4">
          <mxGeometry relative="1" as="geometry" />
        </mxCell>
        <mxCell id="LlE1iLzROr7FtnHzThpW-3" value="&lt;div&gt;Gerar recomendação&lt;br&gt;&lt;/div&gt;" style="ellipse;whiteSpace=wrap;html=1;" vertex="1" parent="1">
          <mxGeometry x="400" y="361.24000000000007" width="100" height="70.83" as="geometry" />
        </mxCell>
        <mxCell id="LlE1iLzROr7FtnHzThpW-4" value="&lt;div&gt;Seleção de disciplinas&lt;br&gt;&lt;/div&gt;" style="ellipse;whiteSpace=wrap;html=1;" vertex="1" parent="1">
          <mxGeometry x="300" y="275.41" width="100" height="70.83" as="geometry" />
        </mxCell>
        <mxCell id="LlE1iLzROr7FtnHzThpW-5" value="&lt;div&gt;Avaliar professores e disciplinas&lt;br&gt;&lt;/div&gt;" style="ellipse;whiteSpace=wrap;html=1;" vertex="1" parent="1">
          <mxGeometry x="300" y="440" width="100" height="70.83" as="geometry" />
        </mxCell>
        <mxCell id="LlE1iLzROr7FtnHzThpW-22" style="rounded=0;orthogonalLoop=1;jettySize=auto;html=1;endArrow=none;endFill=0;startSize=6;" edge="1" parent="1" target="LlE1iLzROr7FtnHzThpW-2">
          <mxGeometry relative="1" as="geometry">
            <mxPoint x="560" y="310" as="sourcePoint" />
          </mxGeometry>
        </mxCell>
        <mxCell id="LlE1iLzROr7FtnHzThpW-23" style="rounded=0;orthogonalLoop=1;jettySize=auto;html=1;endArrow=none;endFill=0;" edge="1" parent="1" target="LlE1iLzROr7FtnHzThpW-3">
          <mxGeometry relative="1" as="geometry">
            <mxPoint x="560" y="310" as="sourcePoint" />
          </mxGeometry>
        </mxCell>
        <mxCell id="LlE1iLzROr7FtnHzThpW-6" value="Sistema" style="shape=umlActor;verticalLabelPosition=bottom;verticalAlign=top;html=1;outlineConnect=0;" vertex="1" parent="1">
          <mxGeometry x="570" y="280.82000000000005" width="30" height="60" as="geometry" />
        </mxCell>
        <mxCell id="LlE1iLzROr7FtnHzThpW-25" style="rounded=0;orthogonalLoop=1;jettySize=auto;html=1;endArrow=none;endFill=0;" edge="1" parent="1" target="LlE1iLzROr7FtnHzThpW-5">
          <mxGeometry relative="1" as="geometry">
            <mxPoint x="240" y="440" as="sourcePoint" />
          </mxGeometry>
        </mxCell>
        <mxCell id="LlE1iLzROr7FtnHzThpW-15" value="&lt;div&gt;Usuário&lt;/div&gt;&lt;div&gt;Autenticado&lt;br&gt;&lt;/div&gt;" style="shape=umlActor;verticalLabelPosition=bottom;verticalAlign=top;html=1;outlineConnect=0;" vertex="1" parent="1">
          <mxGeometry x="200" y="410" width="30" height="60" as="geometry" />
        </mxCell>
        <mxCell id="LlE1iLzROr7FtnHzThpW-18" value="&amp;lt;&amp;lt; include &amp;gt;&amp;gt;" style="text;html=1;strokeColor=none;fillColor=none;align=center;verticalAlign=middle;whiteSpace=wrap;rounded=0;" vertex="1" parent="1">
          <mxGeometry x="400" y="331.24" width="80" height="30" as="geometry" />
        </mxCell>
      </root>
    </mxGraphModel>
  </diagram>
</mxfile>
